<?xml version="1.0" standalone="no"?>
<!DOCTYPE svg PUBLIC "-//W3C//DTD SVG 20010904//EN"
 "http://www.w3.org/TR/2001/REC-SVG-20010904/DTD/svg10.dtd">
<svg version="1.0" xmlns="http://www.w3.org/2000/svg"
 width="260.000000pt" height="260.000000pt" viewBox="0 0 260.000000 260.000000"
 preserveAspectRatio="xMidYMid meet">
<metadata>
Created by potrace 1.11, written by Peter Selinger 2001-2013
</metadata>
<g transform="translate(0.000000,260.000000) scale(0.100000,-0.100000)"
fill="#000000" stroke="none">
<path d="M0 1300 l0 -1300 1300 0 1300 0 0 1300 0 1300 -1300 0 -1300 0 0
-1300z m2102 748 c62 -18 133 -88 158 -156 42 -111 11 -245 -75 -319 -64 -55
-122 -66 -319 -61 -158 4 -175 6 -228 30 -43 20 -68 41 -104 87 l-47 61 -64 0
-63 0 0 -64 c0 -88 -35 -122 -82 -79 -16 15 -18 36 -18 235 0 132 4 227 10
239 10 17 23 19 161 19 131 0 155 -3 189 -20 116 -59 126 -225 18 -302 l-31
-21 36 -33 c51 -47 96 -56 277 -52 153 3 159 4 186 28 113 105 66 310 -72 310
-93 0 -147 -60 -147 -161 0 -46 5 -66 26 -98 l27 -41 -65 0 -66 0 -16 38 c-9
21 -16 65 -16 102 -1 183 157 308 325 258z m-1419 -7 c33 -13 43 -46 23 -76
-16 -25 -19 -25 -161 -25 l-145 0 0 -50 0 -50 122 0 c99 0 125 -3 140 -17 23
-21 23 -45 0 -66 -14 -13 -44 -17 -137 -19 l-120 -3 -3 -47 -3 -48 140 0 c128
0 143 -2 161 -20 24 -24 25 -39 6 -66 -13 -17 -30 -19 -190 -22 -235 -4 -216
-27 -216 258 0 282 -17 260 199 260 88 0 171 -4 184 -9z m175 -19 c8 -11 12
-62 12 -170 l0 -154 34 -34 c38 -38 70 -43 116 -19 52 27 60 58 60 220 0 132
2 147 20 165 26 26 36 25 67 -6 l25 -25 -4 -152 c-4 -129 -7 -158 -25 -192
-46 -89 -123 -132 -215 -122 -66 8 -119 44 -155 104 -27 46 -28 55 -31 196 -2
82 -1 159 2 173 11 42 65 51 94 16z m-188 -795 c88 -45 134 -157 105 -255 -21
-68 -76 -126 -186 -196 -106 -67 -179 -123 -179 -137 0 -5 73 -9 173 -9 161 0
175 -1 192 -20 15 -17 16 -24 7 -45 l-12 -25 -235 0 -236 0 6 38 c21 121 44
151 203 255 70 46 140 98 156 117 25 30 28 40 24 87 -4 42 -11 60 -33 83 -81
85 -232 44 -250 -67 -9 -53 -18 -68 -48 -71 -18 -2 -30 4 -42 21 -31 48 10
153 80 209 65 51 190 58 275 15z m637 -8 c68 -33 119 -85 161 -164 25 -45 27
-60 27 -160 0 -101 -2 -114 -28 -163 -38 -72 -106 -138 -175 -170 -82 -38
-193 -38 -274 2 -73 35 -137 99 -174 173 -25 51 -28 69 -29 153 0 73 5 106 19
140 87 199 288 279 473 189z m834 31 c34 -19 22 -52 -36 -110 -49 -48 -115
-136 -115 -153 0 -3 16 -1 36 4 90 25 208 -34 250 -125 53 -115 10 -252 -97
-306 -119 -61 -273 -17 -325 93 -65 141 5 361 171 534 72 75 82 81 116 63z
m-411 -349 c0 -295 -2 -342 -16 -355 -19 -20 -35 -20 -60 -2 -18 13 -19 32
-24 291 l-5 276 -29 -30 c-31 -32 -63 -40 -84 -19 -24 24 -11 47 61 112 65 59
76 66 115 66 l42 0 0 -339z"/>
<path d="M1360 1865 l0 -75 100 0 c94 0 103 2 125 25 32 31 32 69 0 100 -22
23 -31 25 -125 25 l-100 0 0 -75z"/>
<path d="M1105 1161 c-203 -52 -266 -330 -107 -473 38 -34 119 -68 163 -68 43
0 123 36 161 73 101 98 114 258 29 373 -52 71 -167 115 -246 95z"/>
<path d="M1997 894 c-103 -44 -102 -211 1 -256 129 -57 248 54 198 185 -27 72
-120 105 -199 71z"/>
</g>
</svg>
